<svg width="512" height="513" viewBox="0 0 512 513" fill="none" xmlns="http://www.w3.org/2000/svg">
<path fill-rule="evenodd" clip-rule="evenodd" d="M475.326 240.915C479.327 236.914 484.753 234.667 490.411 234.667C496.069 234.667 501.495 236.914 505.496 240.915C509.497 244.916 511.744 250.342 511.744 256C511.776 314.59 491.7 371.416 454.87 416.983C418.041 462.549 366.689 494.096 309.395 506.352C252.102 518.608 192.337 510.83 140.089 484.318C87.8412 457.806 46.2743 414.166 22.3345 360.69C-1.60537 307.215 -6.46784 247.143 8.55956 190.513C23.587 133.883 57.5939 84.1261 104.898 49.5559C152.202 14.9857 209.937 -2.30317 268.456 0.578189C326.974 3.45955 382.732 26.3366 426.411 65.3867V21.3333C426.411 15.6754 428.658 10.2492 432.659 6.24839C436.66 2.24761 442.086 0 447.744 0C453.402 0 458.828 2.24761 462.829 6.24839C466.83 10.2492 469.077 15.6754 469.077 21.3333V85.3333C469.077 102.307 462.335 118.586 450.332 130.588C438.33 142.591 422.051 149.333 405.077 149.333H341.077C335.42 149.333 329.993 147.086 325.993 143.085C321.992 139.084 319.744 133.658 319.744 128C319.744 122.342 321.992 116.916 325.993 112.915C329.993 108.914 335.42 106.667 341.077 106.667H405.077C405.797 106.56 406.509 106.41 407.211 106.219C372.327 70.9499 326.277 48.8915 276.931 43.8138C227.586 38.7361 178.008 50.9544 136.673 78.3802C95.338 105.806 64.8113 146.737 50.3109 194.176C35.8104 241.616 38.2364 292.619 57.1741 338.468C76.1119 384.317 110.386 422.165 154.137 445.544C197.889 468.922 248.402 476.38 297.043 466.641C345.684 456.903 389.433 430.573 420.811 392.153C452.19 353.732 469.251 305.606 469.077 256C469.077 250.342 471.325 244.916 475.326 240.915ZM240.66 134.248C244.66 130.248 250.087 128 255.744 128C261.402 128 266.829 130.248 270.829 134.248C274.83 138.249 277.078 143.675 277.078 149.333V247.168L334.827 304.917C338.713 308.941 340.863 314.33 340.815 319.923C340.766 325.517 338.523 330.867 334.567 334.823C330.612 338.778 325.261 341.022 319.668 341.07C314.074 341.119 308.685 338.969 304.662 335.083L240.662 271.083C236.661 267.083 234.412 261.658 234.411 256V149.333C234.411 143.675 236.659 138.249 240.66 134.248Z" fill="white"/>
</svg>
