<svg width="429" height="512" viewBox="0 0 429 512" fill="none" xmlns="http://www.w3.org/2000/svg">
<path d="M214.379 511.973L199.508 499.226C179.007 482.06 0 327.463 0 214.379C0 95.981 95.981 0 214.379 0C332.777 0 428.758 95.981 428.758 214.379C428.758 327.464 249.751 482.061 229.335 499.311L214.379 511.973ZM214.379 46.355C121.626 46.46 46.461 121.625 46.356 214.378C46.356 285.42 156.488 398.908 214.379 450.851C272.271 398.887 382.402 285.334 382.402 214.378C382.297 121.625 307.133 46.461 214.379 46.355Z" fill="white"/>
<path d="M214.379 299.357C167.447 299.357 129.401 261.311 129.401 214.379C129.401 167.447 167.447 129.401 214.379 129.401C261.311 129.401 299.357 167.447 299.357 214.379C299.357 261.311 261.312 299.357 214.379 299.357ZM214.379 171.889C190.913 171.889 171.89 190.912 171.89 214.378C171.89 237.844 190.913 256.867 214.379 256.867C237.845 256.867 256.868 237.844 256.868 214.378C256.868 190.912 237.846 171.889 214.379 171.889Z" fill="white"/>
</svg>
