<svg width="384" height="512" viewBox="0 0 384 512" fill="none" xmlns="http://www.w3.org/2000/svg">
<path fill-rule="evenodd" clip-rule="evenodd" d="M263.113 234.428C242.064 248.493 217.316 256 192 256C158.063 255.966 125.525 242.47 101.528 218.472C77.5304 194.475 64.0339 161.937 64 128C64 102.684 71.5071 77.9366 85.5719 56.8871C99.6367 35.8376 119.628 19.4315 143.017 9.74348C166.405 0.0554603 192.142 -2.47937 216.972 2.45954C241.801 7.39845 264.609 19.5893 282.51 37.4904C300.411 55.3915 312.602 78.1989 317.541 103.029C322.479 127.858 319.945 153.595 310.257 176.984C300.569 200.372 284.163 220.363 263.113 234.428ZM239.409 57.048C225.376 47.6714 208.877 42.6667 192 42.6667C169.368 42.6667 147.663 51.6572 131.66 67.6603C115.657 83.6634 106.667 105.368 106.667 128C106.667 144.877 111.671 161.376 121.048 175.409C130.424 189.442 143.752 200.379 159.344 206.838C174.937 213.296 192.095 214.986 208.648 211.694C225.201 208.401 240.406 200.274 252.34 188.34C264.274 176.406 272.401 161.201 275.694 144.648C278.986 128.095 277.296 110.937 270.838 95.3444C264.379 79.7518 253.442 66.4245 239.409 57.048ZM56.2979 354.965C92.2926 318.97 141.096 298.723 192 298.667C242.904 298.723 291.707 318.97 327.702 354.965C363.697 390.959 383.944 439.763 384 490.667C384 496.325 381.752 501.751 377.752 505.752C373.751 509.753 368.325 512 362.667 512C357.009 512 351.582 509.753 347.582 505.752C343.581 501.751 341.333 496.325 341.333 490.667C341.333 451.061 325.6 413.078 297.595 385.072C269.589 357.067 231.606 341.333 192 341.333C152.394 341.333 114.411 357.067 86.4054 385.072C58.4 413.078 42.6667 451.061 42.6667 490.667C42.6667 496.325 40.4191 501.751 36.4183 505.752C32.4175 509.753 26.9913 512 21.3333 512C15.6754 512 10.2492 509.753 6.24839 505.752C2.24761 501.751 0 496.325 0 490.667C0.0564662 439.763 20.3031 390.959 56.2979 354.965Z" fill="white"/>
</svg>
