<svg width="512" height="512" viewBox="0 0 512 512" fill="none" xmlns="http://www.w3.org/2000/svg">
<path d="M277.334 21.3333C277.334 15.6754 279.581 10.2492 283.582 6.2484C287.583 2.24762 293.009 1.10279e-05 298.667 1.10279e-05C355.227 0.0621251 409.454 22.5582 449.448 62.5525C489.442 102.547 511.938 156.773 512 213.333C512 218.991 509.753 224.418 505.752 228.418C501.751 232.419 496.325 234.667 490.667 234.667C485.009 234.667 479.583 232.419 475.582 228.418C471.581 224.418 469.334 218.991 469.334 213.333C469.283 168.085 451.286 124.705 419.29 92.7099C387.295 60.7147 343.915 42.7175 298.667 42.6667C293.009 42.6667 287.583 40.4191 283.582 36.4183C279.581 32.4175 277.334 26.9913 277.334 21.3333ZM298.667 128C321.299 128 343.004 136.99 359.007 152.994C375.01 168.997 384 190.702 384 213.333C384 218.991 386.248 224.418 390.249 228.418C394.249 232.419 399.676 234.667 405.334 234.667C410.992 234.667 416.418 232.419 420.419 228.418C424.419 224.418 426.667 218.991 426.667 213.333C426.633 179.396 413.137 146.858 389.139 122.861C365.142 98.8638 332.604 85.3672 298.667 85.3333C293.009 85.3333 287.583 87.581 283.582 91.5817C279.581 95.5825 277.334 101.009 277.334 106.667C277.334 112.325 279.581 117.751 283.582 121.752C287.583 125.752 293.009 128 298.667 128ZM492.651 357.099C505.014 369.496 511.956 386.289 511.956 403.797C511.956 421.305 505.014 438.099 492.651 450.496L473.238 472.875C298.518 640.149 -126.656 215.083 38.0377 39.808L62.571 18.4747C74.9821 6.45713 91.6256 -0.190942 108.901 -0.0312457C126.176 0.128451 142.694 7.08307 154.88 19.328C155.542 19.9893 195.072 71.3387 195.072 71.3387C206.802 83.6614 213.332 100.031 213.304 117.043C213.276 134.056 206.693 150.404 194.923 162.688L170.219 193.749C183.89 226.968 203.991 257.157 229.366 282.583C254.741 308.009 284.89 328.171 318.08 341.909L349.334 317.056C361.62 305.295 377.964 298.72 394.972 298.696C411.98 298.672 428.343 305.202 440.662 316.928C440.662 316.928 491.99 356.437 492.651 357.099ZM463.296 388.117C463.296 388.117 412.246 348.843 411.584 348.181C407.189 343.824 401.251 341.379 395.062 341.379C388.873 341.379 382.934 343.824 378.539 348.181C377.963 348.779 334.934 383.061 334.934 383.061C332.034 385.369 328.583 386.882 324.921 387.451C321.259 388.02 317.511 387.624 314.048 386.304C271.05 370.295 231.995 345.232 199.527 312.812C167.06 280.393 141.94 241.375 125.867 198.4C124.442 194.89 123.977 191.063 124.521 187.314C125.065 183.565 126.597 180.028 128.96 177.067C128.96 177.067 163.243 134.016 163.819 133.461C168.177 129.066 170.622 123.128 170.622 116.939C170.622 110.75 168.177 104.811 163.819 100.416C163.158 99.776 123.883 48.6827 123.883 48.6827C119.422 44.6828 113.6 42.5407 107.611 42.6954C101.622 42.8501 95.9181 45.2899 91.6697 49.5147L67.1363 70.848C-53.2263 215.573 315.222 563.584 442.048 443.733L461.483 421.333C466.037 417.115 468.773 411.291 469.111 405.092C469.449 398.894 467.364 392.807 463.296 388.117Z" fill="#0891B2"/>
</svg>