<svg width="8100" height="12600" viewBox="0 0 8100 12600" fill="none" xmlns="http://www.w3.org/2000/svg">
<rect x="7500" width="100" height="100" rx="50" fill="#8F00FF"/>
<rect x="7500" y="6500" width="100" height="100" rx="50" fill="#8F00FF"/>
<rect x="7500" y="3000" width="100" height="100" rx="50" fill="#8F00FF"/>
<rect x="7500" y="9500" width="100" height="100" rx="50" fill="#8F00FF"/>
<rect x="7500" y="1500" width="100" height="100" rx="50" fill="#8F00FF"/>
<rect x="7500" y="8000" width="100" height="100" rx="50" fill="#8F00FF"/>
<rect x="7500" y="4500" width="100" height="100" rx="50" fill="#8F00FF"/>
<rect x="7500" y="11000" width="100" height="100" rx="50" fill="#8F00FF"/>
<rect x="7500" y="6000" width="100" height="100" rx="50" fill="#8F00FF"/>
<rect x="7500" y="12500" width="100" height="100" rx="50" fill="#8F00FF"/>
<rect x="7500" y="500" width="100" height="100" rx="50" fill="#8F00FF"/>
<rect x="7500" y="7000" width="100" height="100" rx="50" fill="#8F00FF"/>
<rect x="7500" y="3500" width="100" height="100" rx="50" fill="#8F00FF"/>
<rect x="7500" y="10000" width="100" height="100" rx="50" fill="#8F00FF"/>
<rect x="7500" y="2000" width="100" height="100" rx="50" fill="#8F00FF"/>
<rect x="7500" y="8500" width="100" height="100" rx="50" fill="#8F00FF"/>
<rect x="7500" y="5000" width="100" height="100" rx="50" fill="#8F00FF"/>
<rect x="7500" y="11500" width="100" height="100" rx="50" fill="#8F00FF"/>
<rect x="7500" y="1000" width="100" height="100" rx="50" fill="#8F00FF"/>
<rect x="7500" y="7500" width="100" height="100" rx="50" fill="#8F00FF"/>
<rect x="7500" y="4000" width="100" height="100" rx="50" fill="#8F00FF"/>
<rect x="7500" y="10500" width="100" height="100" rx="50" fill="#8F00FF"/>
<rect x="7500" y="2500" width="100" height="100" rx="50" fill="#8F00FF"/>
<rect x="7500" y="9000" width="100" height="100" rx="50" fill="#8F00FF"/>
<rect x="7500" y="5500" width="100" height="100" rx="50" fill="#8F00FF"/>
<rect x="7500" y="12000" width="100" height="100" rx="50" fill="#8F00FF"/>
<rect x="5500" width="100" height="100" rx="50" fill="#8F00FF"/>
<rect x="5500" y="6500" width="100" height="100" rx="50" fill="#8F00FF"/>
<rect x="5500" y="3000" width="100" height="100" rx="50" fill="#8F00FF"/>
<rect x="5500" y="9500" width="100" height="100" rx="50" fill="#8F00FF"/>
<rect x="5500" y="1500" width="100" height="100" rx="50" fill="#8F00FF"/>
<rect x="5500" y="8000" width="100" height="100" rx="50" fill="#8F00FF"/>
<rect x="5500" y="4500" width="100" height="100" rx="50" fill="#8F00FF"/>
<rect x="5500" y="11000" width="100" height="100" rx="50" fill="#8F00FF"/>
<rect x="5500" y="6000" width="100" height="100" rx="50" fill="#8F00FF"/>
<rect x="5500" y="12500" width="100" height="100" rx="50" fill="#8F00FF"/>
<rect x="5500" y="500" width="100" height="100" rx="50" fill="#8F00FF"/>
<rect x="5500" y="7000" width="100" height="100" rx="50" fill="#8F00FF"/>
<rect x="5500" y="3500" width="100" height="100" rx="50" fill="#8F00FF"/>
<rect x="5500" y="10000" width="100" height="100" rx="50" fill="#8F00FF"/>
<rect x="5500" y="2000" width="100" height="100" rx="50" fill="#8F00FF"/>
<rect x="5500" y="8500" width="100" height="100" rx="50" fill="#8F00FF"/>
<rect x="5500" y="5000" width="100" height="100" rx="50" fill="#8F00FF"/>
<rect x="5500" y="11500" width="100" height="100" rx="50" fill="#8F00FF"/>
<rect x="5500" y="1000" width="100" height="100" rx="50" fill="#8F00FF"/>
<rect x="5500" y="7500" width="100" height="100" rx="50" fill="#8F00FF"/>
<rect x="5500" y="4000" width="100" height="100" rx="50" fill="#8F00FF"/>
<rect x="5500" y="10500" width="100" height="100" rx="50" fill="#8F00FF"/>
<rect x="5500" y="2500" width="100" height="100" rx="50" fill="#8F00FF"/>
<rect x="5500" y="9000" width="100" height="100" rx="50" fill="#8F00FF"/>
<rect x="5500" y="5500" width="100" height="100" rx="50" fill="#8F00FF"/>
<rect x="5500" y="12000" width="100" height="100" rx="50" fill="#8F00FF"/>
<rect x="3500" width="100" height="100" rx="50" fill="#8F00FF"/>
<rect x="1000" width="100" height="100" rx="50" fill="#8F00FF"/>
<rect x="1000" y="4000" width="100" height="100" rx="50" fill="#8F00FF"/>
<rect x="1000" y="8000" width="100" height="100" rx="50" fill="#8F00FF"/>
<rect x="3500" y="6500" width="100" height="100" rx="50" fill="#8F00FF"/>
<rect x="3500" y="3000" width="100" height="100" rx="50" fill="#8F00FF"/>
<rect x="1000" y="3000" width="100" height="100" rx="50" fill="#8F00FF"/>
<rect x="1000" y="7000" width="100" height="100" rx="50" fill="#8F00FF"/>
<rect x="1000" y="11000" width="100" height="100" rx="50" fill="#8F00FF"/>
<rect x="1000" y="12000" width="100" height="100" rx="50" fill="#8F00FF"/>
<rect x="3500" y="9500" width="100" height="100" rx="50" fill="#8F00FF"/>
<rect x="3500" y="1500" width="100" height="100" rx="50" fill="#8F00FF"/>
<rect x="1000" y="1500" width="100" height="100" rx="50" fill="#8F00FF"/>
<rect x="1000" y="5500" width="100" height="100" rx="50" fill="#8F00FF"/>
<rect x="1000" y="9500" width="100" height="100" rx="50" fill="#8F00FF"/>
<rect x="3500" y="8000" width="100" height="100" rx="50" fill="#8F00FF"/>
<rect x="3500" y="4500" width="100" height="100" rx="50" fill="#8F00FF"/>
<rect x="3500" y="11000" width="100" height="100" rx="50" fill="#8F00FF"/>
<rect x="3500" y="6000" width="100" height="100" rx="50" fill="#8F00FF"/>
<rect x="3500" y="12500" width="100" height="100" rx="50" fill="#8F00FF"/>
<rect x="3500" y="500" width="100" height="100" rx="50" fill="#8F00FF"/>
<rect x="1000" y="500" width="100" height="100" rx="50" fill="#8F00FF"/>
<rect x="1000" y="4500" width="100" height="100" rx="50" fill="#8F00FF"/>
<rect x="1000" y="8500" width="100" height="100" rx="50" fill="#8F00FF"/>
<rect x="3500" y="7000" width="100" height="100" rx="50" fill="#8F00FF"/>
<rect x="3500" y="3500" width="100" height="100" rx="50" fill="#8F00FF"/>
<rect x="1000" y="3500" width="100" height="100" rx="50" fill="#8F00FF"/>
<rect x="1000" y="7500" width="100" height="100" rx="50" fill="#8F00FF"/>
<rect x="1000" y="11500" width="100" height="100" rx="50" fill="#8F00FF"/>
<rect x="1000" y="12500" width="100" height="100" rx="50" fill="#8F00FF"/>
<rect x="3500" y="10000" width="100" height="100" rx="50" fill="#8F00FF"/>
<rect x="3500" y="2000" width="100" height="100" rx="50" fill="#8F00FF"/>
<rect x="1000" y="2000" width="100" height="100" rx="50" fill="#8F00FF"/>
<rect x="1000" y="6000" width="100" height="100" rx="50" fill="#8F00FF"/>
<rect x="1000" y="10000" width="100" height="100" rx="50" fill="#8F00FF"/>
<rect x="3500" y="8500" width="100" height="100" rx="50" fill="#8F00FF"/>
<rect x="3500" y="5000" width="100" height="100" rx="50" fill="#8F00FF"/>
<rect x="3500" y="11500" width="100" height="100" rx="50" fill="#8F00FF"/>
<rect x="3500" y="1000" width="100" height="100" rx="50" fill="#8F00FF"/>
<rect x="1000" y="1000" width="100" height="100" rx="50" fill="#8F00FF"/>
<rect x="1000" y="5000" width="100" height="100" rx="50" fill="#8F00FF"/>
<rect x="1000" y="9000" width="100" height="100" rx="50" fill="#8F00FF"/>
<rect x="3500" y="7500" width="100" height="100" rx="50" fill="#8F00FF"/>
<rect x="3500" y="4000" width="100" height="100" rx="50" fill="#8F00FF"/>
<rect x="3500" y="10500" width="100" height="100" rx="50" fill="#8F00FF"/>
<rect x="3500" y="2500" width="100" height="100" rx="50" fill="#8F00FF"/>
<rect x="1000" y="2500" width="100" height="100" rx="50" fill="#8F00FF"/>
<rect x="1000" y="6500" width="100" height="100" rx="50" fill="#8F00FF"/>
<rect x="1000" y="10500" width="100" height="100" rx="50" fill="#8F00FF"/>
<rect x="3500" y="9000" width="100" height="100" rx="50" fill="#8F00FF"/>
<rect x="3500" y="5500" width="100" height="100" rx="50" fill="#8F00FF"/>
<rect x="3500" y="12000" width="100" height="100" rx="50" fill="#8F00FF"/>
<rect x="6500" width="100" height="100" rx="50" fill="#8F00FF"/>
<rect x="6500" y="6500" width="100" height="100" rx="50" fill="#8F00FF"/>
<rect x="6500" y="3000" width="100" height="100" rx="50" fill="#8F00FF"/>
<rect x="6500" y="9500" width="100" height="100" rx="50" fill="#8F00FF"/>
<rect x="6500" y="1500" width="100" height="100" rx="50" fill="#8F00FF"/>
<rect x="6500" y="8000" width="100" height="100" rx="50" fill="#8F00FF"/>
<rect x="6500" y="4500" width="100" height="100" rx="50" fill="#8F00FF"/>
<rect x="6500" y="11000" width="100" height="100" rx="50" fill="#8F00FF"/>
<rect x="6500" y="6000" width="100" height="100" rx="50" fill="#8F00FF"/>
<rect x="6500" y="12500" width="100" height="100" rx="50" fill="#8F00FF"/>
<rect x="6500" y="500" width="100" height="100" rx="50" fill="#8F00FF"/>
<rect x="6500" y="7000" width="100" height="100" rx="50" fill="#8F00FF"/>
<rect x="6500" y="3500" width="100" height="100" rx="50" fill="#8F00FF"/>
<rect x="6500" y="10000" width="100" height="100" rx="50" fill="#8F00FF"/>
<rect x="6500" y="2000" width="100" height="100" rx="50" fill="#8F00FF"/>
<rect x="6500" y="8500" width="100" height="100" rx="50" fill="#8F00FF"/>
<rect x="6500" y="5000" width="100" height="100" rx="50" fill="#8F00FF"/>
<rect x="6500" y="11500" width="100" height="100" rx="50" fill="#8F00FF"/>
<rect x="6500" y="1000" width="100" height="100" rx="50" fill="#8F00FF"/>
<rect x="6500" y="7500" width="100" height="100" rx="50" fill="#8F00FF"/>
<rect x="6500" y="4000" width="100" height="100" rx="50" fill="#8F00FF"/>
<rect x="6500" y="10500" width="100" height="100" rx="50" fill="#8F00FF"/>
<rect x="6500" y="2500" width="100" height="100" rx="50" fill="#8F00FF"/>
<rect x="6500" y="9000" width="100" height="100" rx="50" fill="#8F00FF"/>
<rect x="6500" y="5500" width="100" height="100" rx="50" fill="#8F00FF"/>
<rect x="6500" y="12000" width="100" height="100" rx="50" fill="#8F00FF"/>
<rect x="4500" width="100" height="100" rx="50" fill="#8F00FF"/>
<rect x="2000" width="100" height="100" rx="50" fill="#8F00FF"/>
<rect x="2000" y="4000" width="100" height="100" rx="50" fill="#8F00FF"/>
<rect x="2000" y="8000" width="100" height="100" rx="50" fill="#8F00FF"/>
<rect x="4500" y="6500" width="100" height="100" rx="50" fill="#8F00FF"/>
<rect x="4500" y="3000" width="100" height="100" rx="50" fill="#8F00FF"/>
<rect x="2000" y="3000" width="100" height="100" rx="50" fill="#8F00FF"/>
<rect x="2000" y="7000" width="100" height="100" rx="50" fill="#8F00FF"/>
<rect x="2000" y="11000" width="100" height="100" rx="50" fill="#8F00FF"/>
<rect x="2000" y="12000" width="100" height="100" rx="50" fill="#8F00FF"/>
<rect x="4500" y="9500" width="100" height="100" rx="50" fill="#8F00FF"/>
<rect x="4500" y="1500" width="100" height="100" rx="50" fill="#8F00FF"/>
<rect x="2000" y="1500" width="100" height="100" rx="50" fill="#8F00FF"/>
<rect x="2000" y="5500" width="100" height="100" rx="50" fill="#8F00FF"/>
<rect x="2000" y="9500" width="100" height="100" rx="50" fill="#8F00FF"/>
<rect x="4500" y="8000" width="100" height="100" rx="50" fill="#8F00FF"/>
<rect x="4500" y="4500" width="100" height="100" rx="50" fill="#8F00FF"/>
<rect x="4500" y="11000" width="100" height="100" rx="50" fill="#8F00FF"/>
<rect x="4500" y="6000" width="100" height="100" rx="50" fill="#8F00FF"/>
<rect x="4500" y="12500" width="100" height="100" rx="50" fill="#8F00FF"/>
<rect x="4500" y="500" width="100" height="100" rx="50" fill="#8F00FF"/>
<rect x="2000" y="500" width="100" height="100" rx="50" fill="#8F00FF"/>
<rect x="2000" y="4500" width="100" height="100" rx="50" fill="#8F00FF"/>
<rect x="2000" y="8500" width="100" height="100" rx="50" fill="#8F00FF"/>
<rect x="4500" y="7000" width="100" height="100" rx="50" fill="#8F00FF"/>
<rect x="4500" y="3500" width="100" height="100" rx="50" fill="#8F00FF"/>
<rect x="2000" y="3500" width="100" height="100" rx="50" fill="#8F00FF"/>
<rect x="2000" y="7500" width="100" height="100" rx="50" fill="#8F00FF"/>
<rect x="2000" y="11500" width="100" height="100" rx="50" fill="#8F00FF"/>
<rect x="2000" y="12500" width="100" height="100" rx="50" fill="#8F00FF"/>
<rect x="4500" y="10000" width="100" height="100" rx="50" fill="#8F00FF"/>
<rect x="4500" y="2000" width="100" height="100" rx="50" fill="#8F00FF"/>
<rect x="2000" y="2000" width="100" height="100" rx="50" fill="#8F00FF"/>
<rect x="2000" y="6000" width="100" height="100" rx="50" fill="#8F00FF"/>
<rect x="2000" y="10000" width="100" height="100" rx="50" fill="#8F00FF"/>
<rect x="4500" y="8500" width="100" height="100" rx="50" fill="#8F00FF"/>
<rect x="4500" y="5000" width="100" height="100" rx="50" fill="#8F00FF"/>
<rect x="4500" y="11500" width="100" height="100" rx="50" fill="#8F00FF"/>
<rect x="4500" y="1000" width="100" height="100" rx="50" fill="#8F00FF"/>
<rect x="2000" y="1000" width="100" height="100" rx="50" fill="#8F00FF"/>
<rect x="2000" y="5000" width="100" height="100" rx="50" fill="#8F00FF"/>
<rect x="2000" y="9000" width="100" height="100" rx="50" fill="#8F00FF"/>
<rect x="4500" y="7500" width="100" height="100" rx="50" fill="#8F00FF"/>
<rect x="4500" y="4000" width="100" height="100" rx="50" fill="#8F00FF"/>
<rect x="4500" y="10500" width="100" height="100" rx="50" fill="#8F00FF"/>
<rect x="4500" y="2500" width="100" height="100" rx="50" fill="#8F00FF"/>
<rect x="2000" y="2500" width="100" height="100" rx="50" fill="#8F00FF"/>
<rect x="2000" y="6500" width="100" height="100" rx="50" fill="#8F00FF"/>
<rect x="2000" y="10500" width="100" height="100" rx="50" fill="#8F00FF"/>
<rect x="4500" y="9000" width="100" height="100" rx="50" fill="#8F00FF"/>
<rect x="4500" y="5500" width="100" height="100" rx="50" fill="#8F00FF"/>
<rect x="4500" y="12000" width="100" height="100" rx="50" fill="#8F00FF"/>
<rect x="2500" width="100" height="100" rx="50" fill="#8F00FF"/>
<rect width="100" height="100" rx="50" fill="#8F00FF"/>
<rect y="4000" width="100" height="100" rx="50" fill="#8F00FF"/>
<rect y="8000" width="100" height="100" rx="50" fill="#8F00FF"/>
<rect x="2500" y="6500" width="100" height="100" rx="50" fill="#8F00FF"/>
<rect x="2500" y="3000" width="100" height="100" rx="50" fill="#8F00FF"/>
<rect y="3000" width="100" height="100" rx="50" fill="#8F00FF"/>
<rect y="7000" width="100" height="100" rx="50" fill="#8F00FF"/>
<rect y="11000" width="100" height="100" rx="50" fill="#8F00FF"/>
<rect y="12000" width="100" height="100" rx="50" fill="#8F00FF"/>
<rect x="2500" y="9500" width="100" height="100" rx="50" fill="#8F00FF"/>
<rect x="2500" y="1500" width="100" height="100" rx="50" fill="#8F00FF"/>
<rect y="1500" width="100" height="100" rx="50" fill="#8F00FF"/>
<rect y="5500" width="100" height="100" rx="50" fill="#8F00FF"/>
<rect y="9500" width="100" height="100" rx="50" fill="#8F00FF"/>
<rect x="2500" y="8000" width="100" height="100" rx="50" fill="#8F00FF"/>
<rect x="2500" y="4500" width="100" height="100" rx="50" fill="#8F00FF"/>
<rect x="2500" y="11000" width="100" height="100" rx="50" fill="#8F00FF"/>
<rect x="2500" y="6000" width="100" height="100" rx="50" fill="#8F00FF"/>
<rect x="2500" y="12500" width="100" height="100" rx="50" fill="#8F00FF"/>
<rect x="2500" y="500" width="100" height="100" rx="50" fill="#8F00FF"/>
<rect y="500" width="100" height="100" rx="50" fill="#8F00FF"/>
<rect y="4500" width="100" height="100" rx="50" fill="#8F00FF"/>
<rect y="8500" width="100" height="100" rx="50" fill="#8F00FF"/>
<rect x="2500" y="7000" width="100" height="100" rx="50" fill="#8F00FF"/>
<rect x="2500" y="3500" width="100" height="100" rx="50" fill="#8F00FF"/>
<rect y="3500" width="100" height="100" rx="50" fill="#8F00FF"/>
<rect y="7500" width="100" height="100" rx="50" fill="#8F00FF"/>
<rect y="11500" width="100" height="100" rx="50" fill="#8F00FF"/>
<rect y="12500" width="100" height="100" rx="50" fill="#8F00FF"/>
<rect x="2500" y="10000" width="100" height="100" rx="50" fill="#8F00FF"/>
<rect x="2500" y="2000" width="100" height="100" rx="50" fill="#8F00FF"/>
<rect y="2000" width="100" height="100" rx="50" fill="#8F00FF"/>
<rect y="6000" width="100" height="100" rx="50" fill="#8F00FF"/>
<rect y="10000" width="100" height="100" rx="50" fill="#8F00FF"/>
<rect x="2500" y="8500" width="100" height="100" rx="50" fill="#8F00FF"/>
<rect x="2500" y="5000" width="100" height="100" rx="50" fill="#8F00FF"/>
<rect x="2500" y="11500" width="100" height="100" rx="50" fill="#8F00FF"/>
<rect x="2500" y="1000" width="100" height="100" rx="50" fill="#8F00FF"/>
<rect y="1000" width="100" height="100" rx="50" fill="#8F00FF"/>
<rect y="5000" width="100" height="100" rx="50" fill="#8F00FF"/>
<rect y="9000" width="100" height="100" rx="50" fill="#8F00FF"/>
<rect x="2500" y="7500" width="100" height="100" rx="50" fill="#8F00FF"/>
<rect x="2500" y="4000" width="100" height="100" rx="50" fill="#8F00FF"/>
<rect x="2500" y="10500" width="100" height="100" rx="50" fill="#8F00FF"/>
<rect x="2500" y="2500" width="100" height="100" rx="50" fill="#8F00FF"/>
<rect y="2500" width="100" height="100" rx="50" fill="#8F00FF"/>
<rect y="6500" width="100" height="100" rx="50" fill="#8F00FF"/>
<rect y="10500" width="100" height="100" rx="50" fill="#8F00FF"/>
<rect x="2500" y="9000" width="100" height="100" rx="50" fill="#8F00FF"/>
<rect x="2500" y="5500" width="100" height="100" rx="50" fill="#8F00FF"/>
<rect x="2500" y="12000" width="100" height="100" rx="50" fill="#8F00FF"/>
<rect x="8000" width="100" height="100" rx="50" fill="#8F00FF"/>
<rect x="8000" y="6500" width="100" height="100" rx="50" fill="#8F00FF"/>
<rect x="8000" y="3000" width="100" height="100" rx="50" fill="#8F00FF"/>
<rect x="8000" y="9500" width="100" height="100" rx="50" fill="#8F00FF"/>
<rect x="8000" y="1500" width="100" height="100" rx="50" fill="#8F00FF"/>
<rect x="8000" y="8000" width="100" height="100" rx="50" fill="#8F00FF"/>
<rect x="8000" y="4500" width="100" height="100" rx="50" fill="#8F00FF"/>
<rect x="8000" y="11000" width="100" height="100" rx="50" fill="#8F00FF"/>
<rect x="8000" y="6000" width="100" height="100" rx="50" fill="#8F00FF"/>
<rect x="8000" y="12500" width="100" height="100" rx="50" fill="#8F00FF"/>
<rect x="8000" y="500" width="100" height="100" rx="50" fill="#8F00FF"/>
<rect x="8000" y="7000" width="100" height="100" rx="50" fill="#8F00FF"/>
<rect x="8000" y="3500" width="100" height="100" rx="50" fill="#8F00FF"/>
<rect x="8000" y="10000" width="100" height="100" rx="50" fill="#8F00FF"/>
<rect x="8000" y="2000" width="100" height="100" rx="50" fill="#8F00FF"/>
<rect x="8000" y="8500" width="100" height="100" rx="50" fill="#8F00FF"/>
<rect x="8000" y="5000" width="100" height="100" rx="50" fill="#8F00FF"/>
<rect x="8000" y="11500" width="100" height="100" rx="50" fill="#8F00FF"/>
<rect x="8000" y="1000" width="100" height="100" rx="50" fill="#8F00FF"/>
<rect x="8000" y="7500" width="100" height="100" rx="50" fill="#8F00FF"/>
<rect x="8000" y="4000" width="100" height="100" rx="50" fill="#8F00FF"/>
<rect x="8000" y="10500" width="100" height="100" rx="50" fill="#8F00FF"/>
<rect x="8000" y="2500" width="100" height="100" rx="50" fill="#8F00FF"/>
<rect x="8000" y="9000" width="100" height="100" rx="50" fill="#8F00FF"/>
<rect x="8000" y="5500" width="100" height="100" rx="50" fill="#8F00FF"/>
<rect x="8000" y="12000" width="100" height="100" rx="50" fill="#8F00FF"/>
<rect x="6000" width="100" height="100" rx="50" fill="#8F00FF"/>
<rect x="6000" y="6500" width="100" height="100" rx="50" fill="#8F00FF"/>
<rect x="6000" y="3000" width="100" height="100" rx="50" fill="#8F00FF"/>
<rect x="6000" y="9500" width="100" height="100" rx="50" fill="#8F00FF"/>
<rect x="6000" y="1500" width="100" height="100" rx="50" fill="#8F00FF"/>
<rect x="6000" y="8000" width="100" height="100" rx="50" fill="#8F00FF"/>
<rect x="6000" y="4500" width="100" height="100" rx="50" fill="#8F00FF"/>
<rect x="6000" y="11000" width="100" height="100" rx="50" fill="#8F00FF"/>
<rect x="6000" y="6000" width="100" height="100" rx="50" fill="#8F00FF"/>
<rect x="6000" y="12500" width="100" height="100" rx="50" fill="#8F00FF"/>
<rect x="6000" y="500" width="100" height="100" rx="50" fill="#8F00FF"/>
<rect x="6000" y="7000" width="100" height="100" rx="50" fill="#8F00FF"/>
<rect x="6000" y="3500" width="100" height="100" rx="50" fill="#8F00FF"/>
<rect x="6000" y="10000" width="100" height="100" rx="50" fill="#8F00FF"/>
<rect x="6000" y="2000" width="100" height="100" rx="50" fill="#8F00FF"/>
<rect x="6000" y="8500" width="100" height="100" rx="50" fill="#8F00FF"/>
<rect x="6000" y="5000" width="100" height="100" rx="50" fill="#8F00FF"/>
<rect x="6000" y="11500" width="100" height="100" rx="50" fill="#8F00FF"/>
<rect x="6000" y="1000" width="100" height="100" rx="50" fill="#8F00FF"/>
<rect x="6000" y="7500" width="100" height="100" rx="50" fill="#8F00FF"/>
<rect x="6000" y="4000" width="100" height="100" rx="50" fill="#8F00FF"/>
<rect x="6000" y="10500" width="100" height="100" rx="50" fill="#8F00FF"/>
<rect x="6000" y="2500" width="100" height="100" rx="50" fill="#8F00FF"/>
<rect x="6000" y="9000" width="100" height="100" rx="50" fill="#8F00FF"/>
<rect x="6000" y="5500" width="100" height="100" rx="50" fill="#8F00FF"/>
<rect x="6000" y="12000" width="100" height="100" rx="50" fill="#8F00FF"/>
<rect x="4000" width="100" height="100" rx="50" fill="#8F00FF"/>
<rect x="1500" width="100" height="100" rx="50" fill="#8F00FF"/>
<rect x="1500" y="4000" width="100" height="100" rx="50" fill="#8F00FF"/>
<rect x="1500" y="8000" width="100" height="100" rx="50" fill="#8F00FF"/>
<rect x="4000" y="6500" width="100" height="100" rx="50" fill="#8F00FF"/>
<rect x="4000" y="3000" width="100" height="100" rx="50" fill="#8F00FF"/>
<rect x="1500" y="3000" width="100" height="100" rx="50" fill="#8F00FF"/>
<rect x="1500" y="7000" width="100" height="100" rx="50" fill="#8F00FF"/>
<rect x="1500" y="11000" width="100" height="100" rx="50" fill="#8F00FF"/>
<rect x="1500" y="12000" width="100" height="100" rx="50" fill="#8F00FF"/>
<rect x="4000" y="9500" width="100" height="100" rx="50" fill="#8F00FF"/>
<rect x="4000" y="1500" width="100" height="100" rx="50" fill="#8F00FF"/>
<rect x="1500" y="1500" width="100" height="100" rx="50" fill="#8F00FF"/>
<rect x="1500" y="5500" width="100" height="100" rx="50" fill="#8F00FF"/>
<rect x="1500" y="9500" width="100" height="100" rx="50" fill="#8F00FF"/>
<rect x="4000" y="8000" width="100" height="100" rx="50" fill="#8F00FF"/>
<rect x="4000" y="4500" width="100" height="100" rx="50" fill="#8F00FF"/>
<rect x="4000" y="11000" width="100" height="100" rx="50" fill="#8F00FF"/>
<rect x="4000" y="6000" width="100" height="100" rx="50" fill="#8F00FF"/>
<rect x="4000" y="12500" width="100" height="100" rx="50" fill="#8F00FF"/>
<rect x="4000" y="500" width="100" height="100" rx="50" fill="#8F00FF"/>
<rect x="1500" y="500" width="100" height="100" rx="50" fill="#8F00FF"/>
<rect x="1500" y="4500" width="100" height="100" rx="50" fill="#8F00FF"/>
<rect x="1500" y="8500" width="100" height="100" rx="50" fill="#8F00FF"/>
<rect x="4000" y="7000" width="100" height="100" rx="50" fill="#8F00FF"/>
<rect x="4000" y="3500" width="100" height="100" rx="50" fill="#8F00FF"/>
<rect x="1500" y="3500" width="100" height="100" rx="50" fill="#8F00FF"/>
<rect x="1500" y="7500" width="100" height="100" rx="50" fill="#8F00FF"/>
<rect x="1500" y="11500" width="100" height="100" rx="50" fill="#8F00FF"/>
<rect x="1500" y="12500" width="100" height="100" rx="50" fill="#8F00FF"/>
<rect x="4000" y="10000" width="100" height="100" rx="50" fill="#8F00FF"/>
<rect x="4000" y="2000" width="100" height="100" rx="50" fill="#8F00FF"/>
<rect x="1500" y="2000" width="100" height="100" rx="50" fill="#8F00FF"/>
<rect x="1500" y="6000" width="100" height="100" rx="50" fill="#8F00FF"/>
<rect x="1500" y="10000" width="100" height="100" rx="50" fill="#8F00FF"/>
<rect x="4000" y="8500" width="100" height="100" rx="50" fill="#8F00FF"/>
<rect x="4000" y="5000" width="100" height="100" rx="50" fill="#8F00FF"/>
<rect x="4000" y="11500" width="100" height="100" rx="50" fill="#8F00FF"/>
<rect x="4000" y="1000" width="100" height="100" rx="50" fill="#8F00FF"/>
<rect x="1500" y="1000" width="100" height="100" rx="50" fill="#8F00FF"/>
<rect x="1500" y="5000" width="100" height="100" rx="50" fill="#8F00FF"/>
<rect x="1500" y="9000" width="100" height="100" rx="50" fill="#8F00FF"/>
<rect x="4000" y="7500" width="100" height="100" rx="50" fill="#8F00FF"/>
<rect x="4000" y="4000" width="100" height="100" rx="50" fill="#8F00FF"/>
<rect x="4000" y="10500" width="100" height="100" rx="50" fill="#8F00FF"/>
<rect x="4000" y="2500" width="100" height="100" rx="50" fill="#8F00FF"/>
<rect x="1500" y="2500" width="100" height="100" rx="50" fill="#8F00FF"/>
<rect x="1500" y="6500" width="100" height="100" rx="50" fill="#8F00FF"/>
<rect x="1500" y="10500" width="100" height="100" rx="50" fill="#8F00FF"/>
<rect x="4000" y="9000" width="100" height="100" rx="50" fill="#8F00FF"/>
<rect x="4000" y="5500" width="100" height="100" rx="50" fill="#8F00FF"/>
<rect x="4000" y="12000" width="100" height="100" rx="50" fill="#8F00FF"/>
<rect x="7000" width="100" height="100" rx="50" fill="#8F00FF"/>
<rect x="7000" y="6500" width="100" height="100" rx="50" fill="#8F00FF"/>
<rect x="7000" y="3000" width="100" height="100" rx="50" fill="#8F00FF"/>
<rect x="7000" y="9500" width="100" height="100" rx="50" fill="#8F00FF"/>
<rect x="7000" y="1500" width="100" height="100" rx="50" fill="#8F00FF"/>
<rect x="7000" y="8000" width="100" height="100" rx="50" fill="#8F00FF"/>
<rect x="7000" y="4500" width="100" height="100" rx="50" fill="#8F00FF"/>
<rect x="7000" y="11000" width="100" height="100" rx="50" fill="#8F00FF"/>
<rect x="7000" y="6000" width="100" height="100" rx="50" fill="#8F00FF"/>
<rect x="7000" y="12500" width="100" height="100" rx="50" fill="#8F00FF"/>
<rect x="7000" y="500" width="100" height="100" rx="50" fill="#8F00FF"/>
<rect x="7000" y="7000" width="100" height="100" rx="50" fill="#8F00FF"/>
<rect x="7000" y="3500" width="100" height="100" rx="50" fill="#8F00FF"/>
<rect x="7000" y="10000" width="100" height="100" rx="50" fill="#8F00FF"/>
<rect x="7000" y="2000" width="100" height="100" rx="50" fill="#8F00FF"/>
<rect x="7000" y="8500" width="100" height="100" rx="50" fill="#8F00FF"/>
<rect x="7000" y="5000" width="100" height="100" rx="50" fill="#8F00FF"/>
<rect x="7000" y="11500" width="100" height="100" rx="50" fill="#8F00FF"/>
<rect x="7000" y="1000" width="100" height="100" rx="50" fill="#8F00FF"/>
<rect x="7000" y="7500" width="100" height="100" rx="50" fill="#8F00FF"/>
<rect x="7000" y="4000" width="100" height="100" rx="50" fill="#8F00FF"/>
<rect x="7000" y="10500" width="100" height="100" rx="50" fill="#8F00FF"/>
<rect x="7000" y="2500" width="100" height="100" rx="50" fill="#8F00FF"/>
<rect x="7000" y="9000" width="100" height="100" rx="50" fill="#8F00FF"/>
<rect x="7000" y="5500" width="100" height="100" rx="50" fill="#8F00FF"/>
<rect x="7000" y="12000" width="100" height="100" rx="50" fill="#8F00FF"/>
<rect x="5000" width="100" height="100" rx="50" fill="#8F00FF"/>
<rect x="5000" y="6500" width="100" height="100" rx="50" fill="#8F00FF"/>
<rect x="5000" y="3000" width="100" height="100" rx="50" fill="#8F00FF"/>
<rect x="5000" y="9500" width="100" height="100" rx="50" fill="#8F00FF"/>
<rect x="5000" y="1500" width="100" height="100" rx="50" fill="#8F00FF"/>
<rect x="5000" y="8000" width="100" height="100" rx="50" fill="#8F00FF"/>
<rect x="5000" y="4500" width="100" height="100" rx="50" fill="#8F00FF"/>
<rect x="5000" y="11000" width="100" height="100" rx="50" fill="#8F00FF"/>
<rect x="5000" y="6000" width="100" height="100" rx="50" fill="#8F00FF"/>
<rect x="5000" y="12500" width="100" height="100" rx="50" fill="#8F00FF"/>
<rect x="5000" y="500" width="100" height="100" rx="50" fill="#8F00FF"/>
<rect x="5000" y="7000" width="100" height="100" rx="50" fill="#8F00FF"/>
<rect x="5000" y="3500" width="100" height="100" rx="50" fill="#8F00FF"/>
<rect x="5000" y="10000" width="100" height="100" rx="50" fill="#8F00FF"/>
<rect x="5000" y="2000" width="100" height="100" rx="50" fill="#8F00FF"/>
<rect x="5000" y="8500" width="100" height="100" rx="50" fill="#8F00FF"/>
<rect x="5000" y="5000" width="100" height="100" rx="50" fill="#8F00FF"/>
<rect x="5000" y="11500" width="100" height="100" rx="50" fill="#8F00FF"/>
<rect x="5000" y="1000" width="100" height="100" rx="50" fill="#8F00FF"/>
<rect x="5000" y="7500" width="100" height="100" rx="50" fill="#8F00FF"/>
<rect x="5000" y="4000" width="100" height="100" rx="50" fill="#8F00FF"/>
<rect x="5000" y="10500" width="100" height="100" rx="50" fill="#8F00FF"/>
<rect x="5000" y="2500" width="100" height="100" rx="50" fill="#8F00FF"/>
<rect x="5000" y="9000" width="100" height="100" rx="50" fill="#8F00FF"/>
<rect x="5000" y="5500" width="100" height="100" rx="50" fill="#8F00FF"/>
<rect x="5000" y="12000" width="100" height="100" rx="50" fill="#8F00FF"/>
<rect x="3000" width="100" height="100" rx="50" fill="#8F00FF"/>
<rect x="500" width="100" height="100" rx="50" fill="#8F00FF"/>
<rect x="500" y="4000" width="100" height="100" rx="50" fill="#8F00FF"/>
<rect x="500" y="8000" width="100" height="100" rx="50" fill="#8F00FF"/>
<rect x="3000" y="6500" width="100" height="100" rx="50" fill="#8F00FF"/>
<rect x="3000" y="3000" width="100" height="100" rx="50" fill="#8F00FF"/>
<rect x="500" y="3000" width="100" height="100" rx="50" fill="#8F00FF"/>
<rect x="500" y="7000" width="100" height="100" rx="50" fill="#8F00FF"/>
<rect x="500" y="11000" width="100" height="100" rx="50" fill="#8F00FF"/>
<rect x="500" y="12000" width="100" height="100" rx="50" fill="#8F00FF"/>
<rect x="3000" y="9500" width="100" height="100" rx="50" fill="#8F00FF"/>
<rect x="3000" y="1500" width="100" height="100" rx="50" fill="#8F00FF"/>
<rect x="500" y="1500" width="100" height="100" rx="50" fill="#8F00FF"/>
<rect x="500" y="5500" width="100" height="100" rx="50" fill="#8F00FF"/>
<rect x="500" y="9500" width="100" height="100" rx="50" fill="#8F00FF"/>
<rect x="3000" y="8000" width="100" height="100" rx="50" fill="#8F00FF"/>
<rect x="3000" y="4500" width="100" height="100" rx="50" fill="#8F00FF"/>
<rect x="3000" y="11000" width="100" height="100" rx="50" fill="#8F00FF"/>
<rect x="3000" y="6000" width="100" height="100" rx="50" fill="#8F00FF"/>
<rect x="3000" y="12500" width="100" height="100" rx="50" fill="#8F00FF"/>
<rect x="3000" y="500" width="100" height="100" rx="50" fill="#8F00FF"/>
<rect x="500" y="500" width="100" height="100" rx="50" fill="#8F00FF"/>
<rect x="500" y="4500" width="100" height="100" rx="50" fill="#8F00FF"/>
<rect x="500" y="8500" width="100" height="100" rx="50" fill="#8F00FF"/>
<rect x="3000" y="7000" width="100" height="100" rx="50" fill="#8F00FF"/>
<rect x="3000" y="3500" width="100" height="100" rx="50" fill="#8F00FF"/>
<rect x="500" y="3500" width="100" height="100" rx="50" fill="#8F00FF"/>
<rect x="500" y="7500" width="100" height="100" rx="50" fill="#8F00FF"/>
<rect x="500" y="11500" width="100" height="100" rx="50" fill="#8F00FF"/>
<rect x="500" y="12500" width="100" height="100" rx="50" fill="#8F00FF"/>
<rect x="3000" y="10000" width="100" height="100" rx="50" fill="#8F00FF"/>
<rect x="3000" y="2000" width="100" height="100" rx="50" fill="#8F00FF"/>
<rect x="500" y="2000" width="100" height="100" rx="50" fill="#8F00FF"/>
<rect x="500" y="6000" width="100" height="100" rx="50" fill="#8F00FF"/>
<rect x="500" y="10000" width="100" height="100" rx="50" fill="#8F00FF"/>
<rect x="3000" y="8500" width="100" height="100" rx="50" fill="#8F00FF"/>
<rect x="3000" y="5000" width="100" height="100" rx="50" fill="#8F00FF"/>
<rect x="3000" y="11500" width="100" height="100" rx="50" fill="#8F00FF"/>
<rect x="3000" y="1000" width="100" height="100" rx="50" fill="#8F00FF"/>
<rect x="500" y="1000" width="100" height="100" rx="50" fill="#8F00FF"/>
<rect x="500" y="5000" width="100" height="100" rx="50" fill="#8F00FF"/>
<rect x="500" y="9000" width="100" height="100" rx="50" fill="#8F00FF"/>
<rect x="3000" y="7500" width="100" height="100" rx="50" fill="#8F00FF"/>
<rect x="3000" y="4000" width="100" height="100" rx="50" fill="#8F00FF"/>
<rect x="3000" y="10500" width="100" height="100" rx="50" fill="#8F00FF"/>
<rect x="3000" y="2500" width="100" height="100" rx="50" fill="#8F00FF"/>
<rect x="500" y="2500" width="100" height="100" rx="50" fill="#8F00FF"/>
<rect x="500" y="6500" width="100" height="100" rx="50" fill="#8F00FF"/>
<rect x="500" y="10500" width="100" height="100" rx="50" fill="#8F00FF"/>
<rect x="3000" y="9000" width="100" height="100" rx="50" fill="#8F00FF"/>
<rect x="3000" y="5500" width="100" height="100" rx="50" fill="#8F00FF"/>
<rect x="3000" y="12000" width="100" height="100" rx="50" fill="#8F00FF"/>
</svg>
